<svg width="543" height="4195" viewBox="0 0 543 4195" fill="none" xmlns="http://www.w3.org/2000/svg">
<mask id="mask0_1203_2850" style="mask-type:alpha" maskUnits="userSpaceOnUse" x="0" y="0" width="543" height="4195">
<rect width="543" height="4194.67" fill="#D9D9D9"/>
</mask>
<g mask="url(#mask0_1203_2850)">
<circle cx="574.678" cy="6.03308" r="316.75" stroke="white" stroke-width="168.933"/>
<circle cx="0.754166" cy="592.02" r="98.1124" stroke="white" stroke-width="76.7836"/>
<mask id="path-4-inside-1_1203_2850" fill="white">
<path d="M1073.93 856.732C1073.93 909.421 1063.56 961.593 1043.39 1010.27C1023.23 1058.95 993.676 1103.18 956.42 1140.44C919.163 1177.69 874.933 1207.25 826.256 1227.41C777.578 1247.57 725.405 1257.95 672.717 1257.95C620.028 1257.95 567.856 1247.57 519.178 1227.41C470.5 1207.25 426.27 1177.69 389.014 1140.44C351.757 1103.18 322.204 1058.95 302.041 1010.27C281.878 961.593 271.5 909.421 271.5 856.732L402.227 856.732C402.227 892.253 409.224 927.427 422.817 960.244C436.411 993.061 456.335 1022.88 481.452 1048C506.569 1073.11 536.388 1093.04 569.205 1106.63C602.022 1120.23 637.196 1127.22 672.717 1127.22C708.238 1127.22 743.411 1120.23 776.228 1106.63C809.046 1093.04 838.864 1073.11 863.981 1048C889.099 1022.88 909.023 993.061 922.616 960.244C936.21 927.427 943.206 892.253 943.206 856.732H1073.93Z"/>
</mask>
<path d="M1073.93 856.732C1073.93 909.421 1063.56 961.593 1043.39 1010.27C1023.23 1058.95 993.676 1103.18 956.42 1140.44C919.163 1177.69 874.933 1207.25 826.256 1227.41C777.578 1247.57 725.405 1257.95 672.717 1257.95C620.028 1257.95 567.856 1247.57 519.178 1227.41C470.5 1207.25 426.27 1177.69 389.014 1140.44C351.757 1103.18 322.204 1058.95 302.041 1010.27C281.878 961.593 271.5 909.421 271.5 856.732L402.227 856.732C402.227 892.253 409.224 927.427 422.817 960.244C436.411 993.061 456.335 1022.88 481.452 1048C506.569 1073.11 536.388 1093.04 569.205 1106.63C602.022 1120.23 637.196 1127.22 672.717 1127.22C708.238 1127.22 743.411 1120.23 776.228 1106.63C809.046 1093.04 838.864 1073.11 863.981 1048C889.099 1022.88 909.023 993.061 922.616 960.244C936.21 927.427 943.206 892.253 943.206 856.732H1073.93Z" stroke="white" stroke-width="337.867" mask="url(#path-4-inside-1_1203_2850)"/>
<circle cx="46.7591" cy="1544.53" r="255.663" stroke="white" stroke-width="107.092"/>
<circle cx="574.678" cy="2737.62" r="316.75" stroke="white" stroke-width="168.933"/>
<circle cx="0.754166" cy="3323.61" r="98.1124" stroke="white" stroke-width="76.7836"/>
<mask id="path-8-inside-2_1203_2850" fill="white">
<path d="M1073.93 3588.32C1073.93 3641.01 1063.56 3693.18 1043.39 3741.86C1023.23 3790.54 993.676 3834.77 956.42 3872.03C919.163 3909.28 874.933 3938.83 826.256 3959C777.578 3979.16 725.405 3989.54 672.717 3989.54C620.028 3989.54 567.856 3979.16 519.178 3959C470.5 3938.83 426.27 3909.28 389.014 3872.03C351.757 3834.77 322.204 3790.54 302.041 3741.86C281.878 3693.18 271.5 3641.01 271.5 3588.32L402.227 3588.32C402.227 3623.84 409.224 3659.02 422.817 3691.83C436.411 3724.65 456.335 3754.47 481.452 3779.59C506.569 3804.7 536.388 3824.63 569.205 3838.22C602.022 3851.82 637.196 3858.81 672.717 3858.81C708.238 3858.81 743.411 3851.82 776.228 3838.22C809.046 3824.63 838.864 3804.7 863.981 3779.59C889.099 3754.47 909.023 3724.65 922.616 3691.83C936.21 3659.02 943.206 3623.84 943.206 3588.32H1073.93Z"/>
</mask>
<path d="M1073.93 3588.32C1073.93 3641.01 1063.56 3693.18 1043.39 3741.86C1023.23 3790.54 993.676 3834.77 956.42 3872.03C919.163 3909.28 874.933 3938.83 826.256 3959C777.578 3979.16 725.405 3989.54 672.717 3989.54C620.028 3989.54 567.856 3979.16 519.178 3959C470.5 3938.83 426.27 3909.28 389.014 3872.03C351.757 3834.77 322.204 3790.54 302.041 3741.86C281.878 3693.18 271.5 3641.01 271.5 3588.32L402.227 3588.32C402.227 3623.84 409.224 3659.02 422.817 3691.83C436.411 3724.65 456.335 3754.47 481.452 3779.59C506.569 3804.7 536.388 3824.63 569.205 3838.22C602.022 3851.82 637.196 3858.81 672.717 3858.81C708.238 3858.81 743.411 3851.82 776.228 3838.22C809.046 3824.63 838.864 3804.7 863.981 3779.59C889.099 3754.47 909.023 3724.65 922.616 3691.83C936.21 3659.02 943.206 3623.84 943.206 3588.32H1073.93Z" stroke="white" stroke-width="337.867" mask="url(#path-8-inside-2_1203_2850)"/>
<circle cx="46.7591" cy="4276.12" r="255.663" stroke="white" stroke-width="107.092"/>
</g>
</svg>
