<svg width="513" height="135" viewBox="0 0 513 135" fill="none" xmlns="http://www.w3.org/2000/svg">
<g clip-path="url(#clip0_1100_2850)">
<path d="M42.14 43.5865C55.9409 43.5865 67.6172 52.6291 71.5854 65.0955C65.6858 62.1106 59.0312 60.4425 51.9727 60.4425H36.5214C34.9762 60.4425 33.712 61.7067 33.712 63.2519C33.712 64.797 34.9762 66.0612 36.5214 66.0612H51.9727C54.8874 66.0612 57.7143 66.3948 60.4534 67.0093C65.001 68.0453 69.215 69.8889 72.9901 72.3998C83.1739 79.1948 89.8988 90.8009 89.8988 103.987V106.797C89.8988 109.132 88.02 111.011 85.6848 111.011C83.3495 111.011 81.4708 109.132 81.4708 106.797V103.987C81.4708 95.4363 77.8362 87.7458 72.0244 82.3554C68.5478 95.6119 56.4852 105.392 42.14 105.392H41.9645C18.7699 105.269 0 82.408 0 54.2269C0 46.747 1.31688 39.6359 3.70481 33.2271C4.16133 32.0155 5.93472 32.0682 6.54926 33.2095C9.85023 39.3901 16.3819 43.5865 23.8794 43.5865H42.14Z" fill="#53C351"/>
</g>
<path d="M128.038 33.2968L127.711 29.8643L124.442 30.9539C118.839 32.9005 112.856 33.4978 106.98 32.6974C100.804 31.7391 94.4834 32.5907 88.7818 35.1492C85.7593 36.4363 83.1067 38.4589 81.0655 41.033C79.0243 43.6071 77.6594 46.6508 77.095 49.8872C76.3632 54.068 76.7293 58.3671 78.1574 62.364C79.077 60.2884 80.1516 58.285 81.372 56.3708C84.1403 52.2976 87.9762 49.0649 92.4595 47.0268C96.7786 45.0548 101.499 44.1218 106.244 44.3025C101.727 44.9931 97.404 46.6167 93.5492 49.0699C91.6899 50.2382 89.9871 51.6388 88.4822 53.2379C87.0429 54.8363 85.7738 56.5801 84.6955 58.4412C82.6702 62.3314 81.229 66.4987 80.4185 70.8091C79.5449 75.1333 79.0707 79.5287 79.0019 83.9397H84.4504C84.7064 79.9837 85.2435 76.051 86.0576 72.1712C89.8373 74.2121 94.0759 75.2531 98.371 75.195C102.377 75.1923 106.342 74.3864 110.031 72.825C130.762 63.9713 128.038 34.5226 128.038 33.2968Z" fill="#53C351"/>
<path d="M171.894 106.132L150.585 47.0379H166.732L184.416 97.8938H176.727L195.18 47.0379H209.679L227.583 97.8938H219.894L238.128 47.0379H253.285L231.867 106.132H215.281L199.574 62.5254H204.626L188.37 106.132H171.894Z" fill="#53C351"/>
<path d="M297.499 106.132V94.5986L296.4 92.0723V71.4224C296.4 67.7611 295.265 64.9052 292.995 62.8549C290.798 60.8045 287.393 59.7794 282.78 59.7794C279.631 59.7794 276.519 60.292 273.444 61.3171C270.441 62.2691 267.878 63.5872 265.755 65.2714L259.604 53.2988C262.826 51.0288 266.707 49.2713 271.247 48.0265C275.787 46.7816 280.4 46.1592 285.087 46.1592C294.094 46.1592 301.087 48.2828 306.066 52.5299C311.046 56.7771 313.535 63.4041 313.535 72.411V106.132H297.499ZM279.485 107.011C274.872 107.011 270.917 106.242 267.622 104.704C264.327 103.093 261.801 100.933 260.043 98.2234C258.286 95.514 257.407 92.4751 257.407 89.1066C257.407 85.5918 258.249 82.5162 259.933 79.8801C261.691 77.2439 264.437 75.1936 268.171 73.729C271.906 72.1913 276.775 71.4224 282.78 71.4224H298.487V81.4178H284.647C280.62 81.4178 277.837 82.0769 276.299 83.395C274.835 84.713 274.103 86.3606 274.103 88.3378C274.103 90.5346 274.945 92.292 276.629 93.6101C278.386 94.8549 280.766 95.4774 283.769 95.4774C286.624 95.4774 289.187 94.8183 291.457 93.5002C293.727 92.1089 295.375 90.0952 296.4 87.459L299.036 95.3675C297.791 99.1753 295.521 102.068 292.226 104.045C288.931 106.022 284.684 107.011 279.485 107.011ZM329.043 106.132V47.0379H345.409V63.7336L343.103 58.9007C344.86 54.7267 347.679 51.578 351.56 49.4544C355.441 47.2576 360.165 46.1592 365.73 46.1592V61.9762C364.998 61.9029 364.338 61.8663 363.753 61.8663C363.167 61.7931 362.544 61.7565 361.885 61.7565C357.199 61.7565 353.391 63.1112 350.462 65.8206C347.606 68.4567 346.178 72.594 346.178 78.2325V106.132H329.043ZM403.171 128.32C397.606 128.32 392.224 127.624 387.025 126.233C381.899 124.914 377.615 122.901 374.174 120.191L380.984 107.889C383.474 109.94 386.622 111.551 390.43 112.722C394.311 113.967 398.119 114.59 401.853 114.59C407.931 114.59 412.325 113.235 415.034 110.525C417.817 107.816 419.208 103.789 419.208 98.443V89.546L420.307 74.7176L420.087 59.7794V47.0379H436.343V96.2462C436.343 107.23 433.487 115.322 427.776 120.521C422.064 125.72 413.863 128.32 403.171 128.32ZM400.535 103.276C395.043 103.276 390.064 102.104 385.597 99.7611C381.203 97.3446 377.652 94.0128 374.943 89.7657C372.306 85.4453 370.988 80.4293 370.988 74.7176C370.988 68.9327 372.306 63.9167 374.943 59.6695C377.652 55.3492 381.203 52.0173 385.597 49.6741C390.064 47.3308 395.043 46.1592 400.535 46.1592C405.515 46.1592 409.908 47.1844 413.716 49.2347C417.524 51.2119 420.49 54.324 422.613 58.5711C424.737 62.7451 425.799 68.1272 425.799 74.7176C425.799 81.2348 424.737 86.6169 422.613 90.8641C420.49 95.038 417.524 98.1501 413.716 100.2C409.908 102.251 405.515 103.276 400.535 103.276ZM403.94 89.2165C406.943 89.2165 409.615 88.6307 411.959 87.459C414.302 86.2142 416.133 84.4934 417.451 82.2966C418.769 80.0998 419.428 77.5734 419.428 74.7176C419.428 71.7885 418.769 69.2622 417.451 67.1386C416.133 64.9418 414.302 63.2576 411.959 62.086C409.615 60.8412 406.943 60.2187 403.94 60.2187C400.938 60.2187 398.265 60.8412 395.922 62.086C393.579 63.2576 391.712 64.9418 390.32 67.1386C389.002 69.2622 388.343 71.7885 388.343 74.7176C388.343 77.5734 389.002 80.0998 390.32 82.2966C391.712 84.4934 393.579 86.2142 395.922 87.459C398.265 88.6307 400.938 89.2165 403.94 89.2165ZM488.539 106.132V94.5986L487.44 92.0723V71.4224C487.44 67.7611 486.305 64.9052 484.035 62.8549C481.838 60.8045 478.433 59.7794 473.82 59.7794C470.671 59.7794 467.559 60.292 464.484 61.3171C461.481 62.2691 458.918 63.5872 456.795 65.2714L450.644 53.2988C453.866 51.0288 457.747 49.2713 462.287 48.0265C466.827 46.7816 471.44 46.1592 476.127 46.1592C485.134 46.1592 492.127 48.2828 497.106 52.5299C502.086 56.7771 504.575 63.4041 504.575 72.411V106.132H488.539ZM470.525 107.011C465.912 107.011 461.957 106.242 458.662 104.704C455.367 103.093 452.841 100.933 451.083 98.2234C449.326 95.514 448.447 92.4751 448.447 89.1066C448.447 85.5918 449.289 82.5162 450.973 79.8801C452.731 77.2439 455.477 75.1936 459.211 73.729C462.946 72.1913 467.815 71.4224 473.82 71.4224H489.527V81.4178H475.687C471.66 81.4178 468.877 82.0769 467.339 83.395C465.875 84.713 465.143 86.3606 465.143 88.3378C465.143 90.5346 465.985 92.292 467.669 93.6101C469.426 94.8549 471.806 95.4774 474.809 95.4774C477.664 95.4774 480.227 94.8183 482.497 93.5002C484.767 92.1089 486.415 90.0952 487.44 87.459L490.076 95.3675C488.832 99.1753 486.561 102.068 483.266 104.045C479.971 106.022 475.724 107.011 470.525 107.011Z" fill="#1D1D1D"/>
<defs>
<clipPath id="clip0_1100_2850">
<rect width="89.8988" height="89.8988" fill="white" transform="matrix(-1 0 0 1 89.8988 26.73)"/>
</clipPath>
</defs>
</svg>
